<!-- Generator: visioncortex VTracer 0.6.3 --><svg version="1.1" xmlns="http://www.w3.org/2000/svg" width="50" height="50" viewBox="0 0 512 512"><path d="M0 0 C1.26 0.67 1.26 0.67 2.55 1.35 C3.84 1.98 3.84 1.98 5.16 2.62 C11.56 5.89 16.96 9.75 19.3 16.79 C19.85 23.18 18.94 27.45 15.3 32.79 C12.95 35.04 10.35 36.77 7.62 38.54 C6.08 39.58 4.54 40.61 3 41.65 C2.22 42.17 1.43 42.7 0.63 43.23 C-2.97 45.64 -6.48 48.15 -10.01 50.66 C-15.45 54.51 -20.89 58.34 -26.35 62.15 C-28.07 63.36 -29.78 64.58 -31.49 65.8 C-35.18 68.42 -38.78 70.92 -42.82 72.97 C-46.39 74.86 -49.13 76.56 -51.7 79.79 C-53.44 86.29 -53.15 93.12 -52.7 99.79 C-52.01 99.81 -51.33 99.84 -50.63 99.87 C-20.38 101.64 8.63 117.03 28.77 139.42 C35.76 147.56 41.37 156.28 46.3 165.79 C47.01 167.14 47.01 167.14 47.73 168.51 C54.01 181.38 58.94 197.38 58.3 211.79 C59.73 211.94 59.73 211.94 61.18 212.1 C64.3 212.79 64.3 212.79 66.3 215.79 C66.53 218.79 66.63 221.69 66.64 224.69 C66.65 225.56 66.65 226.44 66.66 227.34 C66.67 229.19 66.68 231.04 66.68 232.88 C66.68 235.71 66.72 238.54 66.75 241.36 C66.76 243.16 66.76 244.96 66.77 246.75 C66.78 247.6 66.79 248.44 66.81 249.31 C66.78 253.03 66.71 255.16 64.67 258.34 C61.61 260.22 59.62 260.19 56.05 260.04 C54.98 260 53.9 259.96 52.79 259.93 C51.97 259.88 51.15 259.83 50.3 259.79 C50.19 261.03 50.07 262.27 49.95 263.55 C49.52 268.17 49.09 272.78 48.65 277.4 C48.46 279.4 48.28 281.39 48.09 283.39 C47.82 286.26 47.55 289.14 47.28 292.01 C47.2 292.9 47.11 293.79 47.03 294.7 C46.61 299.1 46.1 303.44 45.3 307.79 C46.09 307.97 46.87 308.16 47.68 308.35 C50.3 309.79 50.3 309.79 51.5 312.75 C52.69 317.47 52.2 321.95 51.74 326.74 C51.65 327.72 51.57 328.69 51.48 329.7 C51.2 332.9 50.9 336.11 50.6 339.32 C50.4 341.56 50.2 343.79 50 346.03 C49.58 350.72 49.15 355.4 48.72 360.08 C48.16 366.08 47.63 372.07 47.09 378.07 C46.68 382.69 46.26 387.31 45.84 391.93 C45.64 394.14 45.44 396.35 45.24 398.56 C44.97 401.65 44.68 404.74 44.39 407.83 C44.31 408.74 44.23 409.65 44.15 410.58 C43 422.58 43 422.58 39.87 426.66 C38.3 427.79 38.3 427.79 35.3 428.79 C35.24 429.58 35.17 430.38 35.1 431.2 C34.45 438.73 33.79 446.27 33.11 453.8 C32.77 457.67 32.43 461.54 32.09 465.41 C31.77 469.15 31.44 472.9 31.1 476.64 C30.98 478.06 30.85 479.48 30.73 480.9 C29.16 499.61 29.16 499.61 23.24 504.72 C18.86 507.8 16.03 507.94 10.82 507.93 C10.03 507.94 9.25 507.94 8.45 507.95 C5.81 507.96 3.18 507.96 0.55 507.96 C-1.33 507.97 -3.22 507.98 -5.1 507.98 C-10.22 508 -15.35 508.01 -20.47 508.02 C-23.67 508.03 -26.87 508.03 -30.07 508.04 C-40.08 508.06 -50.08 508.07 -60.09 508.08 C-71.65 508.09 -83.21 508.12 -94.77 508.16 C-103.7 508.19 -112.63 508.2 -121.56 508.2 C-126.89 508.21 -132.23 508.22 -137.56 508.24 C-142.58 508.26 -147.6 508.27 -152.62 508.26 C-154.47 508.26 -156.31 508.26 -158.15 508.28 C-160.67 508.3 -163.18 508.29 -165.7 508.27 C-166.43 508.29 -167.15 508.3 -167.9 508.31 C-172.96 508.24 -175.78 506.93 -179.7 503.79 C-187.27 495.8 -185.98 480.87 -186.81 470.49 C-186.91 469.29 -187 468.09 -187.1 466.86 C-187.92 456.77 -187.92 456.77 -188.29 451.74 C-188.57 448.03 -188.87 444.33 -189.18 440.62 C-189.3 438.9 -189.3 438.9 -189.42 437.15 C-189.51 436.1 -189.6 435.04 -189.7 433.95 C-189.81 432.56 -189.81 432.56 -189.92 431.14 C-190.99 427.88 -192.71 427.3 -195.7 425.79 C-198.46 423.02 -198.32 420.22 -198.69 416.49 C-198.77 415.74 -198.85 414.99 -198.94 414.21 C-199.2 411.74 -199.45 409.26 -199.7 406.79 C-199.78 405.97 -199.86 405.14 -199.95 404.3 C-201.19 391.88 -202.3 379.44 -203.43 367.01 C-203.81 362.76 -204.21 358.51 -204.61 354.26 C-205.11 349.09 -205.58 343.91 -206.04 338.74 C-206.22 336.78 -206.4 334.82 -206.59 332.86 C-206.86 330.13 -207.1 327.4 -207.33 324.67 C-207.42 323.87 -207.5 323.07 -207.58 322.24 C-208.01 316.9 -207.3 313.51 -204.7 308.79 C-202.51 307.85 -202.51 307.85 -200.7 307.79 C-200.87 306.25 -200.87 306.25 -201.05 304.67 C-201.48 300.8 -201.92 296.93 -202.35 293.07 C-202.54 291.4 -202.72 289.74 -202.91 288.07 C-203.97 278.65 -204.99 269.24 -205.7 259.79 C-206.58 259.83 -207.46 259.86 -208.37 259.9 C-216.97 260.28 -216.97 260.28 -219.85 258.33 C-222.57 254.59 -222.27 251.3 -222.23 246.79 C-222.23 245.91 -222.23 245.04 -222.24 244.14 C-222.24 242.3 -222.23 240.46 -222.22 238.62 C-222.2 235.8 -222.22 232.98 -222.24 230.16 C-222.24 228.37 -222.23 226.58 -222.23 224.79 C-222.23 223.95 -222.24 223.1 -222.25 222.24 C-222.19 218.44 -222.12 216.4 -219.91 213.22 C-217.7 211.79 -217.7 211.79 -213.7 211.79 C-213.67 211.03 -213.64 210.28 -213.62 209.51 C-211.94 178.18 -196.21 149.98 -173.57 128.79 C-154.07 112.05 -127.72 99.66 -101.7 99.79 C-101.73 97.93 -101.73 97.93 -101.76 96.03 C-101.83 91.41 -101.88 86.79 -101.92 82.17 C-101.94 80.18 -101.96 78.18 -102 76.18 C-102.05 73.31 -102.07 70.44 -102.09 67.56 C-102.11 66.67 -102.13 65.79 -102.15 64.87 C-102.15 59.33 -101.43 56.15 -97.7 51.79 C-95.89 50.12 -95.89 50.12 -94.04 48.81 C-93.33 48.31 -92.63 47.81 -91.91 47.3 C-91.16 46.78 -90.41 46.26 -89.63 45.72 C-88.84 45.17 -88.05 44.61 -87.23 44.03 C-80.81 39.51 -74.31 35.08 -67.81 30.67 C-61.55 26.41 -55.4 22 -49.28 17.54 C-42.4 12.55 -35.43 7.7 -28.39 2.94 C-26.73 1.81 -25.08 0.68 -23.43 -0.46 C-15.79 -5.36 -7.74 -3.85 0 0 Z " fill="#553D4A" transform="translate(333.6953125,4.212890625)" /><path d="M0 0 C0 31.35 0 62.7 0 95 C-17.32 95.5 -17.32 95.5 -35 96 C-39.2 99.43 -39.2 99.43 -39.5 103 C-38.87 106.77 -38.03 107.71 -35 110 C-32.34 110.4 -30.08 110.55 -27.42 110.52 C-26.65 110.53 -25.89 110.53 -25.1 110.54 C-22.52 110.56 -19.95 110.55 -17.38 110.55 C-15.54 110.55 -13.69 110.57 -11.85 110.58 C-6.85 110.61 -1.84 110.61 3.17 110.61 C8.4 110.61 13.63 110.64 18.86 110.66 C28.76 110.7 38.67 110.72 48.57 110.73 C59.85 110.75 71.13 110.79 82.4 110.83 C105.6 110.91 128.8 110.96 152 111 C152 116.28 152 121.56 152 127 C67.52 127 -16.96 127 -104 127 C-104 121.72 -104 116.44 -104 111 C-102.75 110.98 -101.5 110.96 -100.21 110.94 C-95.56 110.86 -90.92 110.78 -86.28 110.68 C-84.27 110.64 -82.26 110.61 -80.25 110.58 C-77.36 110.53 -74.47 110.47 -71.58 110.41 C-70.68 110.4 -69.78 110.39 -68.86 110.38 C-67.6 110.35 -67.6 110.35 -66.31 110.32 C-65.57 110.31 -64.84 110.29 -64.08 110.28 C-61.68 109.96 -60.06 109.27 -58 108 C-56.61 105.23 -56.81 103.07 -57 100 C-58.72 96.75 -58.72 96.75 -62 96 C-64.51 95.85 -67 95.74 -69.51 95.68 C-70.6 95.65 -70.6 95.65 -71.72 95.62 C-74.04 95.56 -76.36 95.5 -78.69 95.44 C-80.26 95.39 -81.84 95.35 -83.42 95.31 C-87.28 95.2 -91.14 95.1 -95 95 C-93.85 71.96 -86.06 51.06 -70 34 C-69.56 33.52 -69.13 33.04 -68.68 32.55 C-51.09 13.21 -26.42 0 0 0 Z " fill="#D7D5D5" transform="translate(232,121)" /><path d="M0 0 C54.45 0 108.9 0 165 0 C163.61 18.08 163.61 18.08 163.12 23.5 C163.03 24.78 163.03 24.78 162.93 26.09 C162.5 30.75 162.01 34.22 159 38 C155.75 40.17 154.83 40.25 151.07 40.27 C149.55 40.28 149.55 40.28 147.99 40.29 C146.88 40.29 145.76 40.29 144.62 40.29 C143.44 40.3 142.27 40.3 141.06 40.31 C137.84 40.33 134.62 40.33 131.39 40.33 C128.71 40.34 126.02 40.34 123.33 40.35 C116.98 40.37 110.64 40.37 104.3 40.37 C97.75 40.37 91.21 40.39 84.66 40.42 C79.04 40.45 73.43 40.46 67.81 40.46 C64.45 40.46 61.1 40.46 57.74 40.48 C54 40.5 50.26 40.5 46.51 40.49 C45.4 40.5 44.29 40.51 43.14 40.52 C42.12 40.51 41.1 40.5 40.05 40.49 C39.17 40.5 38.29 40.5 37.37 40.5 C34.21 39.84 33.02 38.46 31 36 C30.21 33.59 30.21 33.59 29.81 30.94 C29.66 29.97 29.51 29.01 29.35 28.02 C29.01 25.05 28.84 22.11 28.69 19.12 C28.37 15.29 28.07 14.1 25.81 10.81 C22.49 8.67 20.87 8.33 17 9 C14.85 10.6 14.09 11.47 13.64 14.14 C13.72 33.54 13.72 33.54 22.81 49.81 C30.36 55 36.2 55.44 45.2 55.42 C47.02 55.43 47.02 55.43 48.88 55.45 C52.2 55.46 55.51 55.47 58.82 55.47 C61.6 55.47 64.37 55.48 67.15 55.49 C73.7 55.5 80.26 55.51 86.81 55.5 C93.55 55.49 100.29 55.52 107.03 55.55 C112.84 55.59 118.64 55.6 124.45 55.59 C127.9 55.59 131.36 55.6 134.82 55.62 C138.68 55.65 142.55 55.63 146.41 55.62 C147.54 55.63 148.67 55.64 149.84 55.66 C157.19 55.58 162.89 54.25 169 50 C177.12 41.69 177.48 32.1 178.56 21 C178.81 18.52 179.06 16.04 179.32 13.56 C179.43 12.42 179.55 11.27 179.67 10.09 C180.03 6.71 180.48 3.36 181 0 C184.63 0 188.26 0 192 0 C191 14.26 189.91 28.5 188.64 42.73 C188.5 44.2 188.37 45.67 188.24 47.13 C188.06 49.2 187.87 51.27 187.68 53.34 C187.58 54.53 187.47 55.72 187.36 56.95 C187 60 187 60 186 64 C126.6 64 67.2 64 6 64 C2.52 33.81 2.52 33.81 1.49 22.21 C1.31 20.11 1.11 18 0.92 15.9 C0.44 10.58 0 5.35 0 0 Z " fill="#AE7240" transform="translate(160,432)" /><path d="M0 0 C29.27 2.25 53.71 14.62 73 37 C86.64 54.26 93.53 73.01 95 95 C63.65 95 32.3 95 0 95 C0 63.65 0 32.3 0 0 Z " fill="#FEFEFE" transform="translate(280,121)" /><path d="M0 0 C0 26.07 0 52.14 0 79 C-28.38 79 -56.76 79 -86 79 C-83.41 55.72 -71.51 36.46 -54 21 C-42.96 12.3 -30.69 5.41 -17 2 C-16.32 1.8 -15.63 1.59 -14.93 1.38 C-9.56 -0.16 -5.96 0 0 0 Z " fill="#FEFEFE" transform="translate(232,129)" /><path d="M0 0 C12.17 5.99 21.14 15.45 25.96 28.17 C28.44 37.57 27.68 46.93 22.81 55.38 C18.83 61.49 13.9 64.7 7.04 66.96 C-5.74 69.36 -16.15 66.96 -26.82 59.76 C-35.44 53.17 -40.85 45.67 -44.19 35.38 C-44.69 33.9 -44.69 33.9 -45.19 32.38 C-45.98 23.15 -45.96 15.06 -40.19 7.38 C-29.6 -4.3 -14.24 -5.53 0 0 Z " fill="#482C3C" transform="translate(265.19140625,339.6171875)" /><path d="M0 0 C6.27 0 12.54 0 19 0 C19.33 2.64 19.66 5.28 20 8 C19.2 8.47 18.39 8.95 17.56 9.44 C15.15 10.77 15.15 10.77 14 12 C13.09 22.55 13.28 38.32 20 47 C26.66 53.66 32.65 55.33 41.76 55.43 C42.89 55.43 44.03 55.42 45.2 55.42 C47.02 55.43 47.02 55.43 48.88 55.45 C52.2 55.46 55.51 55.47 58.82 55.47 C61.6 55.47 64.37 55.48 67.15 55.49 C73.7 55.5 80.26 55.51 86.81 55.5 C93.55 55.49 100.29 55.52 107.03 55.55 C112.84 55.59 118.64 55.6 124.45 55.59 C127.9 55.59 131.36 55.6 134.82 55.62 C138.68 55.65 142.55 55.63 146.41 55.62 C147.54 55.63 148.67 55.64 149.84 55.66 C157.19 55.58 162.89 54.25 169 50 C177.12 41.69 177.48 32.1 178.56 21 C178.81 18.52 179.06 16.04 179.32 13.56 C179.43 12.42 179.55 11.27 179.67 10.09 C180.03 6.71 180.48 3.36 181 0 C184.63 0 188.26 0 192 0 C191 14.26 189.91 28.5 188.64 42.73 C188.5 44.2 188.37 45.67 188.24 47.13 C188.06 49.2 187.87 51.27 187.68 53.34 C187.58 54.53 187.47 55.72 187.36 56.95 C187 60 187 60 186 64 C126.6 64 67.2 64 6 64 C2.52 33.81 2.52 33.81 1.49 22.21 C1.31 20.11 1.11 18 0.92 15.9 C0.44 10.58 0 5.35 0 0 Z " fill="#BFACAC" transform="translate(160,432)" /><path d="M0 0 C57.42 0 114.84 0 174 0 C173.67 2.97 173.34 5.94 173 9 C171.44 9.11 171.44 9.11 169.84 9.23 C159.71 10.1 151.24 12.43 141.86 16.26 C139.01 17.39 136.11 18.33 133.19 19.25 C131.79 19.69 131.79 19.69 130.36 20.14 C106.62 26.22 84.42 22.65 61.38 15.94 C41.28 10.09 21.88 8.32 1 11 C0.67 7.37 0.34 3.74 0 0 Z " fill="#EBE9E9" transform="translate(169,264)" /><path d="M0 0 C28.46 8.31 57.64 8.2 84.95 -3.57 C92.2 -6.4 98.14 -8.09 105.95 -7.57 C105.83 -5.99 105.7 -4.41 105.57 -2.82 C105.5 -1.94 105.43 -1.06 105.36 -0.15 C104.76 5.07 103.81 10.24 102.95 15.43 C49.49 15.43 -3.97 15.43 -59.05 15.43 C-61.3 1.93 -61.3 1.93 -61.05 -5.57 C-43.84 -14.18 -16.88 -4.96 0 0 Z " fill="#AE7240" transform="translate(234.0546875,296.57421875)" /><path d="M0 0 C15.18 0 30.36 0 46 0 C44.61 18.08 44.61 18.08 44.12 23.5 C44.06 24.35 43.99 25.21 43.93 26.09 C43.5 30.75 43.01 34.22 40 38 C36.43 40.38 34.92 40.24 30.69 40.23 C28.74 40.23 28.74 40.23 26.75 40.23 C25.33 40.22 23.91 40.21 22.49 40.2 C21.04 40.19 19.58 40.19 18.13 40.19 C14.31 40.18 10.48 40.16 6.66 40.14 C2.76 40.12 -1.14 40.11 -5.04 40.1 C-12.69 40.08 -20.35 40.04 -28 40 C-27.07 38.74 -26.14 37.48 -25.2 36.22 C-24.68 35.52 -24.16 34.82 -23.63 34.1 C-22.09 32.11 -20.47 30.27 -18.75 28.44 C-15.43 24.71 -12.64 20.71 -9.88 16.56 C-9.47 15.95 -9.06 15.35 -8.64 14.72 C-5.48 9.92 -2.81 5.06 0 0 Z " fill="#925B2E" transform="translate(279,432)" /><path d="M0 0 C84.48 0 168.96 0 256 0 C256 2.64 256 5.28 256 8 C171.52 8 87.04 8 0 8 C0 5.36 0 2.72 0 0 Z " fill="#C1AEAE" transform="translate(128,240)" /><path d="M0 0 C0 2.64 0 5.28 0 8 C-0.81 8.11 -1.62 8.22 -2.46 8.33 C-26.25 11.74 -45.08 21.11 -62 38 C-62.65 38.64 -63.31 39.29 -63.98 39.95 C-76.31 52.98 -82.32 69.82 -86 87 C-57.62 87 -29.24 87 0 87 C0 89.64 0 92.28 0 95 C-1.04 95.01 -2.08 95.02 -3.15 95.03 C-7.01 95.07 -10.87 95.13 -14.73 95.21 C-16.4 95.24 -18.07 95.26 -19.74 95.27 C-22.15 95.29 -24.55 95.34 -26.95 95.39 C-27.7 95.39 -28.44 95.39 -29.21 95.39 C-32.67 95.49 -34.65 95.73 -37.44 97.85 C-39.17 100.01 -39.17 100.01 -40 103 C-45.28 103 -50.56 103 -56 103 C-56.99 101.02 -57.98 99.04 -59 97 C-62.54 95.82 -65.82 95.77 -69.51 95.68 C-70.24 95.66 -70.97 95.64 -71.72 95.62 C-74.04 95.56 -76.36 95.5 -78.69 95.44 C-80.26 95.39 -81.84 95.35 -83.42 95.31 C-87.28 95.2 -91.14 95.1 -95 95 C-93.85 71.96 -86.06 51.06 -70 34 C-69.56 33.52 -69.13 33.04 -68.68 32.55 C-51.36 13.5 -26.21 -0.55 0 0 Z " fill="#EBE9E9" transform="translate(232,121)" /><path d="M0 0 C28.38 1.33 52.46 14.47 71.54 35.31 C86.26 52.38 93.51 72.71 95 95 C63.65 95 32.3 95 0 95 C0 92.36 0 89.72 0 87 C28.38 87 56.76 87 86 87 C83.23 73.63 83.23 73.63 78.19 61.56 C77.84 60.91 77.5 60.25 77.14 59.57 C64.93 36.9 45.61 19.8 21 12 C14.03 9.95 7.24 8.6 0 8 C0 5.36 0 2.72 0 0 Z " fill="#EBE9E9" transform="translate(280,121)" /><path d="M0 0 C5.28 0 10.56 0 16 0 C16 31.68 16 63.36 16 96 C10.72 96 5.44 96 0 96 C0 64.32 0 32.64 0 0 Z " fill="#827676" transform="translate(248,120)" /><path d="M0 0 C6.27 0 12.54 0 19 0 C19.33 2.64 19.66 5.28 20 8 C19.2 8.47 18.39 8.95 17.56 9.44 C15.15 10.77 15.15 10.77 14 12 C13.09 22.55 13.28 38.32 20 47 C26.63 53.63 32.97 55.44 42 55.51 C42.83 55.53 43.66 55.55 44.52 55.57 C47.16 55.62 49.8 55.65 52.44 55.69 C54.24 55.72 56.04 55.76 57.83 55.79 C62.22 55.88 66.61 55.94 71 56 C67.11 60.36 63.16 63.6 57.29 64.34 C54.02 64.46 50.78 64.45 47.5 64.39 C45.72 64.38 45.72 64.38 43.9 64.37 C40.12 64.35 36.34 64.3 32.56 64.25 C29.99 64.23 27.42 64.21 24.85 64.2 C18.57 64.15 12.28 64.08 6 64 C4.36 50.08 2.73 36.17 1.49 22.21 C1.31 20.11 1.11 18 0.92 15.9 C0.44 10.58 0 5.35 0 0 Z " fill="#D6D4D4" transform="translate(160,432)" /><path d="M0 0 C2.55 0.94 2.55 0.94 4.55 1.94 C3.19 5.14 1.82 6.79 -1.02 8.79 C-1.74 9.31 -2.46 9.82 -3.21 10.36 C-4.38 11.17 -4.38 11.17 -5.57 12 C-6.38 12.58 -7.19 13.15 -8.02 13.74 C-14.45 18.29 -20.94 22.75 -27.44 27.19 C-31.68 30.09 -35.88 33.04 -40.07 36 C-40.77 36.5 -41.47 36.99 -42.2 37.51 C-45.67 39.96 -49.12 42.43 -52.56 44.92 C-53.2 45.39 -53.85 45.86 -54.52 46.34 C-55.73 47.22 -56.95 48.11 -58.16 49 C-62.22 51.94 -62.22 51.94 -64.45 51.94 C-65.61 55.43 -65.66 58.33 -65.76 62.02 C-65.78 62.7 -65.8 63.38 -65.82 64.09 C-65.89 66.27 -65.95 68.45 -66.01 70.63 C-66.05 72.11 -66.09 73.59 -66.14 75.07 C-66.25 78.69 -66.35 82.32 -66.45 85.94 C-69.09 85.94 -71.73 85.94 -74.45 85.94 C-77.04 51.83 -77.04 51.83 -71.67 45.49 C-68.62 43 -65.21 41.39 -61.59 39.9 C-57.99 38.29 -54.94 35.93 -51.76 33.63 C-50.42 32.71 -49.08 31.79 -47.73 30.88 C-43.03 27.66 -38.36 24.4 -33.7 21.13 C-32.87 20.55 -32.04 19.97 -31.18 19.38 C-26.73 16.27 -22.31 13.12 -17.94 9.9 C-17.04 9.25 -16.14 8.6 -15.21 7.93 C-13.49 6.67 -11.77 5.4 -10.07 4.12 C-4.26 -0.07 -4.26 -0.07 0 0 Z " fill="#7B6B6C" transform="translate(322.4453125,18.05859375)" /><path d="M0 0 C4.13 0.65 6.2 2.03 9 5 C-16.08 22.55 -16.08 22.55 -18.55 24.28 C-20.19 25.43 -21.83 26.58 -23.47 27.73 C-27.78 30.75 -32.1 33.77 -36.42 36.78 C-37.31 37.4 -38.21 38.03 -39.12 38.67 C-40.82 39.85 -42.51 41.03 -44.2 42.21 C-45.74 43.28 -47.27 44.36 -48.8 45.44 C-50.27 46.48 -51.76 47.51 -53.25 48.53 C-57.54 51.54 -60.41 53.81 -62 59 C-62.47 63.12 -62.6 67.23 -62.69 71.38 C-62.72 72.49 -62.76 73.61 -62.79 74.76 C-62.87 77.51 -62.94 80.25 -63 83 C-65.64 83 -68.28 83 -71 83 C-71.12 78.68 -71.21 74.35 -71.27 70.03 C-71.3 68.56 -71.33 67.09 -71.38 65.62 C-71.44 63.5 -71.47 61.39 -71.49 59.27 C-71.51 58 -71.54 56.72 -71.57 55.41 C-70.7 50.17 -67.65 48.26 -63.59 45.15 C-62.76 44.59 -61.93 44.02 -61.08 43.43 C-60.14 42.79 -59.21 42.15 -58.25 41.48 C-57.26 40.81 -56.27 40.13 -55.25 39.44 C-53.17 38 -51.08 36.57 -49 35.13 C-47.97 34.43 -46.95 33.72 -45.89 33 C-42.01 30.32 -38.16 27.6 -34.31 24.88 C-29.79 21.67 -25.27 18.49 -20.72 15.32 C-19.82 14.7 -18.92 14.07 -17.99 13.43 C-16.26 12.22 -14.52 11.01 -12.77 9.81 C-9.25 7.35 -5.83 4.91 -2.62 2.06 C-1.75 1.38 -0.89 0.7 0 0 Z " fill="#5F4C52" transform="translate(327,21)" /><path d="M0 0 C2.83 1.55 4.52 2.78 5.72 5.84 C6.25 7.89 6.66 9.91 7 12 C7.17 12.93 7.35 13.86 7.52 14.82 C8.56 21.72 9.65 29.21 6 35.38 C2.13 37.47 -0.7 38.03 -5 37 C-8.34 34.97 -9.63 33.24 -10.75 29.49 C-14.55 9.83 -14.55 9.83 -10.1 3.15 C-6.81 -0.22 -4.66 -0.46 0 0 Z " fill="#9D9696" transform="translate(166,346)" /><path d="M0 0 C-0.58 7.76 -1.65 15.33 -3 23 C-10.26 23 -17.52 23 -25 23 C-25 17.39 -25 11.78 -25 6 C-16.48 2.07 -9.45 -0.39 0 0 Z " fill="#915B2E" transform="translate(340,289)" /><path d="M0 0 C2.64 0 5.28 0 8 0 C7.37 16.07 5.68 32.02 4 48 C1.03 48 -1.94 48 -5 48 C-5.33 38.93 -4.29 30.15 -3.06 21.19 C-2.88 19.8 -2.69 18.4 -2.51 17.01 C-1.75 11.32 -0.97 5.65 0 0 Z " fill="#BCA8A9" transform="translate(359,264)" /><path d="M0 0 C2.64 0 5.28 0 8 0 C9.42 8.17 10.63 16.33 11.62 24.56 C11.76 25.61 11.89 26.65 12.03 27.73 C12.86 34.52 13.17 41.16 13 48 C10.03 48 7.06 48 4 48 C3.43 42.45 2.86 36.9 2.29 31.35 C2.1 29.46 1.9 27.58 1.71 25.69 C1.43 22.97 1.15 20.25 0.88 17.53 C0.79 16.7 0.7 15.86 0.61 15.01 C0.11 9.97 -0.08 5.06 0 0 Z " fill="#D2CFD0" transform="translate(145,264)" /><path d="M0 0 C2.26 1.13 4.52 2.26 6.77 3.4 C8.28 4.16 8.28 4.16 9.81 4.94 C10.88 5.48 11.94 6.02 13.04 6.57 C16.07 8.11 16.07 8.11 19.69 9.25 C24.86 11.98 28.58 16.29 32 21 C32 21.99 32 22.98 32 24 C22.99 24.84 17.09 23.77 10 18 C5.26 13.58 2.05 9.15 0 3 C0 2.01 0 1.02 0 0 Z " fill="#B8825A" transform="translate(236,367)" /><path d="M0 0 C7.92 0 15.84 0 24 0 C23.67 2.97 23.34 5.94 23 9 C21.28 9.18 21.28 9.18 19.53 9.37 C18 9.54 16.47 9.71 14.94 9.88 C14.19 9.95 13.43 10.03 12.66 10.11 C7.91 10.65 3.56 11.56 -1 13 C-0.67 8.71 -0.34 4.42 0 0 Z " fill="#D0BBBC" transform="translate(319,264)" /><path d="M0 0 C8.24 -0.95 13.51 0.86 20 6 C23.78 9.59 27.05 12.74 28 18 C27.59 17.61 27.18 17.23 26.75 16.83 C21.64 12.22 16.53 9.08 9.94 7.06 C6.02 5.64 3.29 3.56 0 1 C0 0.67 0 0.34 0 0 Z " fill="#9C6434" transform="translate(246,353)" /></svg>