<svg width="30" height="25" viewBox="0 0 30 25" fill="none" xmlns="http://www.w3.org/2000/svg">
<path d="M1.83937 11.6842L1.83942 11.6841L2.04285 11.4807C4.58044 12.1292 6.47743 14.4596 6.47743 17.2216C6.47743 19.1962 7.08561 21.2522 9.20423 22.1269C9.65423 22.3127 10.097 22.5213 10.5423 22.7311C10.6901 22.8007 10.8381 22.8704 10.9868 22.9395C11.144 23.0125 11.3018 23.0848 11.4595 23.1545C10.4297 23.443 9.21558 23.5564 7.98352 23.4278C6.24062 23.2457 4.51158 22.5848 3.2386 21.3126C1.71105 19.7606 0.804585 17.8863 0.564615 16.1305C0.324538 14.3738 0.752133 12.7714 1.83937 11.6842Z" fill="#D17842" stroke="#141921"/>
<path d="M4.63951 12.5642L4.60585 12.5347L4.5675 12.5117C3.9286 12.1284 3.42212 11.8127 2.98425 11.5398C2.71791 11.3738 2.47694 11.2237 2.247 11.0837C2.12161 11.0074 2.00098 10.935 1.88352 10.8663C2.82063 10.727 3.90204 10.7156 5.00336 10.8937C6.65822 11.1611 8.32236 11.85 9.60422 13.1319C11.1567 14.6844 12.075 16.559 12.3208 18.3143C12.5666 20.0699 12.1392 21.6719 11.0521 22.759C10.9803 22.8308 10.9274 22.8832 10.8809 22.9257C8.28182 22.3367 6.36406 19.9995 6.36406 17.2216C6.36406 17.1325 6.36429 17.0445 6.36452 16.9575C6.36667 16.1519 6.36859 15.4361 6.18117 14.7703C5.96307 13.9955 5.5049 13.3215 4.63951 12.5642Z" fill="#D17842" stroke="#141921"/>
<path d="M11.9947 22.7299L11.9945 22.7298C10.0062 21.5819 8.78154 19.4337 8.46002 16.8348C8.13858 14.2366 8.72852 11.223 10.3379 8.43544C12.8122 4.14976 16.866 1.75563 20.4019 1.85153C19.4132 2.66428 18.5459 3.6584 17.8966 4.7831C16.4333 7.31754 16.0563 10.1711 16.8099 12.9837C17.892 17.0221 15.9642 21.1144 12.4668 22.9861C12.305 22.9088 12.1573 22.8238 11.9947 22.7299Z" fill="#D17842" stroke="#141921"/>
<path d="M22.2045 2.72308L22.2044 2.7231L22.2082 2.72524C24.2232 3.86537 25.4469 6.01125 25.7612 8.61074C26.0754 11.2104 25.4712 14.2286 23.8611 17.0175C21.4432 21.2055 17.3283 23.1699 13.7598 23.032C14.037 22.8608 14.31 22.6858 14.5629 22.5055C15.222 22.0357 15.8397 21.4712 16.3024 20.6698C17.7656 18.1354 18.1427 15.2819 17.3891 12.4693C16.2876 8.35831 17.6635 4.10328 21.0867 2.25619C21.0956 2.25968 21.1046 2.26321 21.1137 2.26679C21.2505 2.32051 21.4119 2.38385 21.5917 2.45639C21.8902 2.57683 22.1286 2.67929 22.2045 2.72308Z" fill="#D17842" stroke="#141921"/>
</svg>
