<svg width="25" height="26" viewBox="0 0 25 26" fill="none" xmlns="http://www.w3.org/2000/svg">
<path d="M20.6259 12.0741V11.5695C20.6259 7.11031 17.011 3.49542 12.5519 3.49542C8.09267 3.49542 4.47778 7.11031 4.47778 11.5695V12.0741" stroke="white" stroke-width="1.28681" stroke-linecap="round" stroke-linejoin="round"/>
<path d="M4.4779 18.1297C4.4779 18.1297 3.46864 20.6528 5.48716 21.6621C7.50568 22.6714 17.5983 22.6714 19.6168 21.6621C21.6353 20.6528 20.6261 18.1297 20.6261 18.1297" stroke="white" stroke-width="1.28681" stroke-linecap="round" stroke-linejoin="round"/>
<rect x="2.96387" y="11.5695" width="19.1759" height="7.06482" rx="3.53241" stroke="white" stroke-width="1.28681" stroke-linecap="round" stroke-linejoin="round"/>
<path d="M5.9917 15.6065L6.79491 15.2049C7.56793 14.8184 8.46934 14.7809 9.27179 15.1019L9.48569 15.1875C10.1521 15.454 10.9007 15.4229 11.5426 15.1019V15.1019C12.1846 14.7809 12.9332 14.7498 13.5996 15.0163L14.0836 15.21C14.7142 15.4622 15.4226 15.4327 16.0301 15.129V15.129C16.6996 14.7943 17.4875 14.7943 18.157 15.129L19.1121 15.6065" stroke="white" stroke-width="1.28681" stroke-linecap="round" stroke-linejoin="round"/>
<circle cx="9.01939" cy="8.56694" r="1.26157" fill="white"/>
<circle cx="12.4256" cy="7.17921" r="1.26157" fill="white"/>
</svg>
