<?xml version="1.0" encoding="UTF-8"?>
<svg xmlns="http://www.w3.org/2000/svg" xmlns:xlink="http://www.w3.org/1999/xlink" width="24px" height="24px" viewBox="0 0 24 24" version="1.1">
<g id="surface1">
<path style=" stroke:none;fill-rule:evenodd;fill:rgb(0%,0%,0%);fill-opacity:1;" d="M 22.5 17.25 C 22.5 18.078125 21.828125 18.75 21 18.75 L 19.5 18.75 C 19.164062 17.457031 17.898438 16.5 16.5 16.5 L 7.5 16.5 C 6.101562 16.5 4.835938 17.457031 4.5 18.75 L 3 18.75 C 2.171875 18.75 1.5 18.078125 1.5 17.25 L 1.5 15.75 C 1.5 14.921875 2.171875 14.25 3 14.25 L 21 14.25 C 21.828125 14.25 22.5 14.921875 22.5 15.75 Z M 21 12.75 L 3 12.75 C 1.34375 12.75 0 14.09375 0 15.75 L 0 17.25 C 0 18.90625 1.34375 20.25 3 20.25 L 4.5 20.25 C 4.835938 21.542969 6.101562 22.5 7.5 22.5 L 16.5 22.5 C 17.898438 22.5 19.164062 21.542969 19.5 20.25 L 21 20.25 C 22.65625 20.25 24 18.90625 24 17.25 L 24 15.75 C 24 14.09375 22.65625 12.75 21 12.75 Z M 19.5 4.5 C 19.5 2.84375 18.15625 1.5 16.5 1.5 L 7.5 1.5 C 5.84375 1.5 4.5 2.84375 4.5 4.5 L 4.5 11.25 L 19.5 11.25 Z M 19.5 4.5 "/>
</g>
</svg>
